<svg xmlns="http://www.w3.org/2000/svg" viewBox="0 0 1200 700" role="img" aria-labelledby="title desc">
  <title id="title">Costa calabrese</title>
  <desc id="desc">Illustrazione del litorale con colline, mare e borgo.</desc>
  <defs>
    <linearGradient id="bg" x1="0" x2="0" y1="0" y2="1">
      <stop offset="0%" stop-color="#8bd8ff"/>
      <stop offset="100%" stop-color="#f7f3df"/>
    </linearGradient>
    <linearGradient id="water" x1="0" x2="1" y1="0" y2="0">
      <stop offset="0%" stop-color="#2a9ad6"/>
      <stop offset="100%" stop-color="#1f6dad"/>
    </linearGradient>
  </defs>
  <rect width="1200" height="700" fill="url(#bg)"/>
  <path d="M0 430 C140 380 300 420 430 370 C560 320 690 370 830 330 C960 295 1090 345 1200 315 L1200 700 L0 700 Z" fill="#97b669"/>
  <path d="M0 495 C170 455 310 510 470 470 C640 430 760 500 920 460 C1030 430 1130 470 1200 455 L1200 700 L0 700 Z" fill="#7ca15c"/>
  <path d="M0 525 C200 505 340 560 520 530 C700 500 870 570 1020 540 C1110 525 1160 545 1200 540 L1200 700 L0 700 Z" fill="url(#water)"/>
  <rect x="710" y="285" width="32" height="120" fill="#d98f5e"/>
  <rect x="750" y="270" width="42" height="135" fill="#d98f5e"/>
  <rect x="798" y="295" width="28" height="110" fill="#d98f5e"/>
  <rect x="838" y="280" width="44" height="125" fill="#d98f5e"/>
  <path d="M700 285 H890" stroke="#8c4f2d" stroke-width="8"/>
  <path d="M0 570 C160 545 340 590 520 565 C700 540 830 595 1040 565 C1120 555 1170 565 1200 560" fill="none" stroke="#ffffff" stroke-opacity="0.45" stroke-width="5"/>
</svg>
