<svg xmlns="http://www.w3.org/2000/svg" viewBox="0 0 1200 700" role="img" aria-labelledby="title desc">
  <title id="title">Festival in piazza</title>
  <desc id="desc">Illustrazione di piazza in festa con luci e palco.</desc>
  <defs>
    <linearGradient id="night" x1="0" x2="0" y1="0" y2="1">
      <stop offset="0%" stop-color="#142850"/>
      <stop offset="100%" stop-color="#27496d"/>
    </linearGradient>
  </defs>
  <rect width="1200" height="700" fill="url(#night)"/>
  <rect y="470" width="1200" height="230" fill="#1b2a41"/>
  <rect x="360" y="360" width="480" height="140" rx="8" fill="#2f3b52"/>
  <rect x="420" y="320" width="360" height="35" rx="8" fill="#f9c74f"/>
  <circle cx="460" cy="337" r="9" fill="#f94144"/>
  <circle cx="540" cy="337" r="9" fill="#90be6d"/>
  <circle cx="620" cy="337" r="9" fill="#577590"/>
  <circle cx="700" cy="337" r="9" fill="#f3722c"/>
  <path d="M120 220 C220 180 300 250 390 220 C490 190 560 260 660 225 C770 185 850 255 940 225 C1020 198 1080 235 1160 215" fill="none" stroke="#ffd166" stroke-width="5" stroke-dasharray="5 16"/>
  <g fill="#0f172a">
    <circle cx="200" cy="560" r="38"/>
    <rect x="166" y="560" width="68" height="90"/>
    <circle cx="320" cy="575" r="35"/>
    <rect x="287" y="575" width="66" height="80"/>
    <circle cx="930" cy="565" r="36"/>
    <rect x="897" y="565" width="66" height="86"/>
    <circle cx="1035" cy="572" r="32"/>
    <rect x="1004" y="572" width="62" height="78"/>
  </g>
</svg>
